<svg width="1440" height="1024" viewBox="0 0 1440 1024" fill="none" xmlns="http://www.w3.org/2000/svg">
<g clip-path="url(#clip0)">
<rect width="1440" height="1024" fill="#FFA800" fill-opacity="0.6"/>
<path d="M164.068 574.609L285.761 467.833C286.84 466.887 288.291 466.484 289.702 466.74L449.003 495.616C450.78 495.938 452.215 497.248 452.697 498.988L498.363 663.709C498.845 665.448 498.289 667.31 496.932 668.501L375.239 775.277C374.7 775.75 374.067 776.088 373.393 776.274C372.719 776.461 372.004 776.497 371.297 776.37L211.997 747.494C210.22 747.172 208.785 745.861 208.303 744.122L162.637 579.402C162.155 577.661 162.711 575.8 164.068 574.609ZM290.259 476.402L177.596 575.254L220.347 583.004C220.536 582.755 220.741 582.518 220.981 582.307L332.879 484.127L290.259 476.402ZM344.536 486.415L232.037 585.123L262.199 590.591L374.651 491.922L344.536 486.415ZM231.382 594.564L244.543 642.035L272.716 647.142L259.555 599.671L231.382 594.564ZM216.58 738.765L365.601 765.776L322.727 611.122L287.18 604.679C284.624 604.215 282.928 601.768 283.391 599.211C283.855 596.656 286.302 594.958 288.859 595.422L325.075 601.987L335.962 592.435C337.914 590.72 340.886 590.916 342.6 592.868C344.313 594.821 344.119 597.793 342.167 599.506L331.792 608.609L374.667 763.263L488.508 663.376L445.634 508.723L358.944 584.785C358.394 585.269 357.763 585.6 357.102 585.783C355.417 586.25 353.537 585.755 352.307 584.352C350.593 582.4 350.787 579.428 352.74 577.714L437.738 503.135L386.683 493.88L268.745 597.361C268.733 597.395 268.717 597.426 268.704 597.459L283.784 651.851C284.216 653.411 283.816 655.084 282.725 656.28C282.119 656.944 281.346 657.408 280.507 657.641C279.835 657.827 279.12 657.865 278.412 657.736L239.96 650.766C238.184 650.445 236.749 649.135 236.266 647.395L221.104 592.702L173.705 584.11L216.58 738.765V738.765Z" fill="#E99A00" fill-opacity="0.46"/>
<path d="M446.228 656.17L464.088 640.498C466.042 638.783 469.013 638.978 470.726 640.931C472.439 642.883 472.245 645.855 470.292 647.569L452.432 663.241C451.882 663.724 451.251 664.055 450.59 664.239C448.905 664.706 447.025 664.211 445.795 662.809C444.081 660.856 444.276 657.885 446.228 656.17Z" fill="#E99A00" fill-opacity="0.46"/>
<path d="M423.83 649.079L458.1 619.008C460.053 617.294 463.025 617.488 464.738 619.441C466.451 621.394 466.257 624.366 464.304 626.08L430.034 656.151C429.484 656.633 428.853 656.965 428.192 657.148C426.507 657.615 424.627 657.12 423.397 655.718C421.683 653.764 421.877 650.792 423.83 649.079Z" fill="#E99A00" fill-opacity="0.46"/>
<path d="M668.007 138.266L779.724 255.44C780.714 256.479 781.176 257.912 780.979 259.333L758.715 419.692C758.467 421.48 757.217 422.968 755.499 423.521L592.808 475.96C591.09 476.514 589.206 476.036 587.961 474.729L476.243 357.555C475.748 357.036 475.385 356.418 475.17 355.752C474.956 355.087 474.89 354.373 474.988 353.662L497.252 193.304C497.5 191.516 498.75 190.028 500.468 189.474L663.159 137.036C664.878 136.481 666.761 136.96 668.007 138.266ZM771.348 260.289L667.921 151.81L661.946 194.845C662.202 195.023 662.448 195.218 662.668 195.449L765.392 303.191L771.348 260.289ZM763.589 314.933L660.312 206.613L656.097 236.975L759.331 345.25L763.589 314.933ZM650.852 206.349L603.966 221.461L600.028 249.821L646.914 234.709L650.852 206.349ZM506.163 197.522L485.337 347.533L638.086 298.299L643.054 262.517C643.411 259.944 645.786 258.148 648.36 258.505C650.932 258.863 652.73 261.237 652.372 263.811L647.31 300.268L657.304 310.75C659.098 312.631 659.026 315.608 657.146 317.401C655.266 319.193 652.288 319.123 650.496 317.243L640.972 307.253L488.223 356.487L592.732 466.1L745.481 416.867L665.898 333.397C665.392 332.868 665.035 332.251 664.825 331.598C664.289 329.934 664.706 328.035 666.056 326.747C667.936 324.955 670.914 325.026 672.706 326.906L750.737 408.747L757.873 357.353L649.602 243.795C649.569 243.784 649.537 243.77 649.504 243.758L595.781 261.074C594.24 261.571 592.553 261.24 591.313 260.2C590.624 259.621 590.128 258.869 589.861 258.04C589.647 257.376 589.58 256.663 589.679 255.95L595.053 217.243C595.301 215.455 596.55 213.967 598.269 213.413L652.288 196.002L658.912 148.288L506.163 197.522V197.522Z" fill="#E99A00" fill-opacity="0.46"/>
<path d="M598.188 423.557L614.581 440.751C616.375 442.632 616.303 445.609 614.423 447.402C612.542 449.195 609.565 449.124 607.772 447.244L591.379 430.05C590.874 429.52 590.517 428.903 590.307 428.251C589.771 426.587 590.188 424.688 591.538 423.4C593.419 421.606 596.395 421.677 598.188 423.557Z" fill="#E99A00" fill-opacity="0.46"/>
<path d="M604.348 400.883L635.806 433.879C637.599 435.759 637.527 438.736 635.647 440.529C633.766 442.322 630.789 442.251 628.996 440.371L597.538 407.376C597.033 406.846 596.676 406.229 596.466 405.577C595.929 403.912 596.347 402.013 597.697 400.726C599.579 398.933 602.556 399.003 604.348 400.883Z" fill="#E99A00" fill-opacity="0.46"/>
<path d="M1264.77 330.674L1141.65 435.807C1140.56 436.738 1139.11 437.121 1137.7 436.846L978.8 405.835C977.028 405.489 975.611 404.159 975.152 402.414L931.702 237.095C931.243 235.349 931.823 233.494 933.196 232.322L1056.31 127.189C1056.86 126.723 1057.49 126.394 1058.17 126.217C1058.85 126.039 1059.56 126.012 1060.27 126.149L1219.17 157.161C1220.94 157.507 1222.36 158.836 1222.81 160.582L1266.26 325.901C1266.72 327.647 1266.14 329.501 1264.77 330.674ZM1137.27 427.178L1251.25 329.847L1208.61 321.524C1208.42 321.77 1208.21 322.005 1207.97 322.212L1094.76 418.881L1137.27 427.178ZM1083.13 416.438L1196.95 319.248L1166.86 313.376L1053.1 410.526L1083.13 416.438ZM1197.73 309.816L1185.21 262.173L1157.11 256.688L1169.63 304.332L1197.73 309.816ZM1214.47 165.828L1065.82 136.819L1106.62 292.034L1142.07 298.954C1144.62 299.452 1146.29 301.922 1145.79 304.472C1145.29 307.021 1142.82 308.686 1140.27 308.187L1104.14 301.136L1093.13 310.542C1091.16 312.23 1088.19 311.995 1086.5 310.02C1084.81 308.044 1085.05 305.075 1087.02 303.388L1097.52 294.425L1056.72 139.21L941.551 237.559L982.345 392.774L1070.05 317.882C1070.6 317.406 1071.24 317.084 1071.9 316.91C1073.59 316.465 1075.47 316.986 1076.68 318.404C1078.37 320.38 1078.13 323.349 1076.16 325.036L990.165 398.468L1041.09 408.407L1160.41 306.518C1160.42 306.485 1160.44 306.454 1160.45 306.422L1146.1 251.831C1145.69 250.266 1146.11 248.599 1147.22 247.418C1147.84 246.762 1148.61 246.308 1149.46 246.086C1150.13 245.909 1150.85 245.881 1151.55 246.019L1189.91 253.504C1191.68 253.85 1193.1 255.179 1193.56 256.925L1207.98 311.817L1255.26 321.044L1214.47 165.828V165.828Z" fill="#E99A00" fill-opacity="0.46"/>
<path d="M983.729 245.332L965.661 260.762C963.685 262.451 960.717 262.215 959.03 260.24C957.343 258.265 957.577 255.296 959.553 253.608L977.62 238.178C978.177 237.703 978.812 237.38 979.475 237.206C981.166 236.761 983.04 237.281 984.251 238.7C985.939 240.676 985.704 243.644 983.729 245.332Z" fill="#E99A00" fill-opacity="0.46"/>
<path d="M1006.03 252.724L971.361 282.331C969.385 284.018 966.416 283.784 964.729 281.808C963.043 279.833 963.276 276.864 965.252 275.177L999.922 245.569C1000.48 245.094 1001.11 244.771 1001.78 244.596C1003.47 244.152 1005.34 244.672 1006.55 246.091C1008.24 248.068 1008.01 251.037 1006.03 252.724Z" fill="#E99A00" fill-opacity="0.46"/>
<path d="M300.989 421.014L353.922 375.373C356.938 372.772 361.491 373.109 364.092 376.126C366.692 379.142 366.355 383.695 363.339 386.296L310.407 431.937C309.557 432.669 308.585 433.17 307.57 433.442C304.981 434.135 302.105 433.351 300.238 431.185C297.637 428.167 297.973 423.614 300.989 421.014Z" fill="#E99A00" fill-opacity="0.26"/>
<path d="M829.353 295.032L899.222 293.215C903.204 293.112 906.514 296.255 906.617 300.237C906.72 304.218 903.577 307.529 899.596 307.633L829.727 309.449C828.605 309.478 827.536 309.25 826.579 308.818C824.135 307.716 822.406 305.288 822.332 302.429C822.229 298.446 825.372 295.135 829.353 295.032Z" fill="#E99A00" fill-opacity="0.26"/>
<path d="M805.557 264.854L875.448 264.367C879.431 264.339 882.681 267.544 882.709 271.528C882.736 275.509 879.53 278.76 875.547 278.788L805.657 279.276C804.535 279.283 803.47 279.035 802.521 278.585C800.099 277.436 798.416 274.976 798.396 272.116C798.369 268.132 801.575 264.881 805.557 264.854Z" fill="#E99A00" fill-opacity="0.26"/>
<path d="M805.557 321.854L875.448 321.367C879.431 321.339 882.681 324.544 882.709 328.528C882.736 332.509 879.53 335.76 875.547 335.788L805.657 336.276C804.535 336.283 803.47 336.035 802.521 335.585C800.099 334.436 798.416 331.976 798.396 329.116C798.369 325.132 801.575 321.881 805.557 321.854Z" fill="#E99A00" fill-opacity="0.26"/>
<path d="M354.989 454.014L407.922 408.373C410.938 405.772 415.491 406.109 418.092 409.126C420.692 412.142 420.355 416.695 417.339 419.296L364.407 464.937C363.557 465.669 362.585 466.17 361.57 466.442C358.981 467.135 356.105 466.351 354.238 464.185C351.637 461.167 351.973 456.614 354.989 454.014Z" fill="#E99A00" fill-opacity="0.26"/>
<path d="M354.989 413.014L407.922 367.373C410.938 364.772 415.491 365.109 418.092 368.126C420.692 371.142 420.355 375.695 417.339 378.296L364.407 423.937C363.557 424.669 362.585 425.17 361.57 425.442C358.981 426.135 356.105 425.351 354.238 423.185C351.637 420.167 351.973 415.614 354.989 413.014Z" fill="#E99A00" fill-opacity="0.26"/>
<path d="M-37.6283 920.344L105.298 797.106C113.444 790.083 125.736 790.993 132.759 799.139C139.779 807.283 138.87 819.578 130.727 826.6L-12.1992 949.838C-14.494 951.815 -17.118 953.166 -19.8589 953.901C-26.8501 955.774 -34.6151 953.656 -39.6575 947.807C-46.6813 939.659 -45.7722 927.364 -37.6283 920.344Z" fill="#E99A00" fill-opacity="0.46"/>
<path d="M71.3717 1022.34L214.298 899.106C222.444 892.083 234.736 892.993 241.759 901.139C248.779 909.283 247.87 921.578 239.727 928.6L96.8008 1051.84C94.506 1053.82 91.882 1055.17 89.1411 1055.9C82.1499 1057.77 74.3849 1055.66 69.3425 1049.81C62.3187 1041.66 63.2278 1029.36 71.3717 1022.34Z" fill="#E99A00" fill-opacity="0.46"/>
<path d="M88.3718 905.344L231.298 782.106C239.444 775.083 251.736 775.993 258.759 784.139C265.779 792.283 264.87 804.578 256.727 811.6L113.801 934.838C111.506 936.815 108.882 938.166 106.141 938.901C99.1499 940.774 91.385 938.656 86.3426 932.807C79.3188 924.659 80.2278 912.364 88.3718 905.344Z" fill="#E99A00" fill-opacity="0.46"/>
<path d="M-45.6282 1022.34L97.2978 899.106C105.444 892.083 117.736 892.993 124.759 901.139C131.779 909.283 130.87 921.578 122.727 928.6L-20.1992 1051.84C-22.494 1053.82 -25.118 1055.17 -27.8588 1055.9C-34.8501 1057.77 -42.615 1055.66 -47.6574 1049.81C-54.6813 1041.66 -53.7722 1029.36 -45.6282 1022.34Z" fill="#E99A00" fill-opacity="0.46"/>
<path d="M-57.6283 936.344L85.2978 813.106C93.4436 806.083 105.736 806.993 112.759 815.139C119.779 823.283 118.87 835.578 110.727 842.6L-32.1992 965.838C-34.494 967.815 -37.118 969.166 -39.8589 969.901C-46.8501 971.774 -54.615 969.656 -59.6575 963.807C-66.6813 955.659 -65.7722 943.364 -57.6283 936.344Z" fill="#E99A00" fill-opacity="0.46"/>
<path d="M16.3718 1071.34L159.298 948.106C167.444 941.083 179.736 941.993 186.759 950.139C193.779 958.283 192.87 970.578 184.727 977.6L41.8008 1100.84C39.506 1102.82 36.882 1104.17 34.1411 1104.9C27.1499 1106.77 19.385 1104.66 14.3425 1098.81C7.31873 1090.66 8.22778 1078.36 16.3718 1071.34Z" fill="#E99A00" fill-opacity="0.46"/>
<path d="M-45.6282 1022.34L97.2978 899.106C105.444 892.083 117.736 892.993 124.759 901.139C131.779 909.283 130.87 921.578 122.727 928.6L-20.1992 1051.84C-22.494 1053.82 -25.118 1055.17 -27.8588 1055.9C-34.8501 1057.77 -42.615 1055.66 -47.6574 1049.81C-54.6813 1041.66 -53.7722 1029.36 -45.6282 1022.34Z" fill="#E99A00" fill-opacity="0.46"/>
<path d="M1190.37 93.344L1333.3 -29.8938C1341.44 -36.9169 1353.74 -36.0072 1360.76 -27.8614C1367.78 -19.7174 1366.87 -7.42238 1358.73 -0.39991L1215.8 122.838C1213.51 124.815 1210.88 126.166 1208.14 126.901C1201.15 128.774 1193.38 126.656 1188.34 120.807C1181.32 112.659 1182.23 100.364 1190.37 93.344Z" fill="#E99A00" fill-opacity="0.46"/>
<path d="M1299.37 195.344L1442.3 72.1062C1450.44 65.0831 1462.74 65.9928 1469.76 74.1386C1476.78 82.2826 1475.87 94.5776 1467.73 101.6L1324.8 224.838C1322.51 226.815 1319.88 228.166 1317.14 228.901C1310.15 230.774 1302.38 228.656 1297.34 222.807C1290.32 214.659 1291.23 202.364 1299.37 195.344Z" fill="#E99A00" fill-opacity="0.46"/>
<path d="M1316.37 78.344L1459.3 -44.8938C1467.44 -51.9169 1479.74 -51.0072 1486.76 -42.8613C1493.78 -34.7174 1492.87 -22.4224 1484.73 -15.3999L1341.8 107.838C1339.51 109.815 1336.88 111.166 1334.14 111.901C1327.15 113.774 1319.39 111.656 1314.34 105.807C1307.32 97.659 1308.23 85.3639 1316.37 78.344Z" fill="#E99A00" fill-opacity="0.46"/>
<path d="M1299.37 93.344L1442.3 -29.8938C1450.44 -36.9169 1462.74 -36.0072 1469.76 -27.8614C1476.78 -19.7174 1475.87 -7.42238 1467.73 -0.399912L1324.8 122.838C1322.51 124.815 1319.88 126.166 1317.14 126.901C1310.15 128.774 1302.38 126.656 1297.34 120.807C1290.32 112.659 1291.23 100.364 1299.37 93.344Z" fill="#E99A00" fill-opacity="0.46"/>
<path d="M1355.37 149.344L1498.3 26.1062C1506.44 19.0831 1518.74 19.9928 1525.76 28.1387C1532.78 36.2826 1531.87 48.5776 1523.73 55.6001L1380.8 178.838C1378.51 180.815 1375.88 182.166 1373.14 182.901C1366.15 184.774 1358.38 182.656 1353.34 176.807C1346.32 168.659 1347.23 156.364 1355.37 149.344Z" fill="#E99A00" fill-opacity="0.46"/>
<path d="M1224.37 63.344L1367.3 -59.8938C1375.44 -66.9169 1387.74 -66.0072 1394.76 -57.8613C1401.78 -49.7174 1400.87 -37.4224 1392.73 -30.3999L1249.8 92.8379C1247.51 94.8154 1244.88 96.1663 1242.14 96.9007C1235.15 98.774 1227.38 96.6565 1222.34 90.8074C1215.32 82.659 1216.23 70.3639 1224.37 63.344Z" fill="#E99A00" fill-opacity="0.46"/>
</g>
<defs>
<clipPath id="clip0">
<rect width="1440" height="1024" fill="white"/>
</clipPath>
</defs>
</svg>
