<svg width="93" height="99" viewBox="0 0 93 99" fill="none" xmlns="http://www.w3.org/2000/svg">
<path d="M0.819471 21.8368L45.7542 0.144112C46.1526 -0.0480225 46.6165 -0.0480224 47.0147 0.144112L91.9497 21.8368C92.4507 22.0786 92.769 22.586 92.769 23.1423L92.769 75.8245C92.769 76.3808 92.4507 76.8882 91.9497 77.13L47.0149 98.8227C46.8158 98.9187 46.6001 98.9668 46.3846 98.9668C46.169 98.9668 45.9535 98.9187 45.7542 98.8227L0.819467 77.13C0.318452 76.8882 0.000100134 76.3808 0.000100183 75.8245L0.000104788 23.1425C0.000104837 22.5858 0.318647 22.0788 0.819471 21.8368ZM46.3846 3.05957L4.78433 23.1423L16.8434 28.9639C16.9197 28.9057 17.0003 28.852 17.0889 28.8093L58.4065 8.86324L46.3846 3.05957ZM61.6805 10.5024L20.1408 30.5559L28.6486 34.6632L70.1712 14.6178L61.6805 10.5024ZM19.1689 33.3061L19.1689 48.4886L27.1158 52.3251L27.1158 37.1426L19.1689 33.3061ZM2.89951 74.9148L44.9349 95.2073L44.9349 45.7448L34.9081 40.9043C34.1871 40.5562 33.8848 39.6896 34.2329 38.9685C34.581 38.2477 35.4476 37.945 36.1688 38.2933L46.3846 43.2252L50.4043 41.2845C51.1255 40.936 51.992 41.2387 52.3402 41.9597C52.6883 42.6807 52.386 43.5474 51.665 43.8955L47.8343 45.7448L47.8343 95.2073L89.8696 74.9145L89.8696 25.452L57.8601 40.9049C57.6569 41.0031 57.4422 41.0495 57.2309 41.0495C56.692 41.0495 56.1744 40.7475 55.9244 40.2297C55.5763 39.5087 55.8786 38.642 56.5996 38.2939L87.9848 23.1423L73.5834 16.1899L30.0353 37.2131C30.029 37.222 30.0218 37.23 30.0152 37.2387L30.0152 54.635C30.0152 55.1339 29.7587 55.5976 29.3362 55.863C29.1015 56.0103 28.8338 56.0847 28.5653 56.0847C28.3504 56.0847 28.1349 56.0369 27.9352 55.9405L17.0889 50.7043C16.5878 50.4625 16.2695 49.9553 16.2695 49.3988L16.2695 31.9066L2.89952 25.4521L2.89951 74.9148Z" fill="#694500"/>
<path d="M77.9057 69.292L84.4999 66.1087C85.2213 65.7602 86.0877 66.0629 86.4358 66.7839C86.7839 67.5048 86.4816 68.3716 85.7606 68.7197L79.1664 71.9031C78.9632 72.0013 78.7485 72.0476 78.5372 72.0476C77.9983 72.0476 77.4807 71.7457 77.2307 71.2279C76.8824 70.5067 77.1847 69.6404 77.9057 69.292Z" fill="#694500"/>
<path d="M71.837 65.3418L84.491 59.2329C85.2122 58.8848 86.0788 59.1871 86.4269 59.9083C86.7748 60.6293 86.4725 61.496 85.7515 61.8441L73.0975 67.953C72.8943 68.051 72.6796 68.0976 72.4683 68.0976C71.9294 68.0976 71.4118 67.7957 71.1618 67.2778C70.8137 66.5565 71.116 65.6897 71.837 65.3418Z" fill="#694500"/>
</svg>
