<svg width="87" height="51" viewBox="0 0 87 51" fill="none" xmlns="http://www.w3.org/2000/svg">
<path d="M7.2 45.24C6.048 45.24 5.024 45.096 4.128 44.808C3.232 44.52 2.392 44.032 1.608 43.344C1.176 42.96 0.96 42.536 0.96 42.072C0.96 41.704 1.096 41.384 1.368 41.112C1.64 40.824 1.968 40.68 2.352 40.68C2.656 40.68 2.928 40.776 3.168 40.968C3.808 41.496 4.432 41.88 5.04 42.12C5.648 42.36 6.368 42.48 7.2 42.48C8.096 42.48 8.864 42.28 9.504 41.88C10.16 41.48 10.488 40.984 10.488 40.392C10.488 39.672 10.168 39.112 9.528 38.712C8.888 38.296 7.872 37.984 6.48 37.776C2.976 37.264 1.224 35.632 1.224 32.88C1.224 31.872 1.488 31 2.016 30.264C2.544 29.512 3.264 28.944 4.176 28.56C5.088 28.16 6.104 27.96 7.224 27.96C8.232 27.96 9.176 28.112 10.056 28.416C10.952 28.72 11.696 29.12 12.288 29.616C12.752 29.984 12.984 30.408 12.984 30.888C12.984 31.256 12.848 31.584 12.576 31.872C12.304 32.144 11.984 32.28 11.616 32.28C11.376 32.28 11.16 32.208 10.968 32.064C10.552 31.728 9.968 31.424 9.216 31.152C8.48 30.864 7.816 30.72 7.224 30.72C6.216 30.72 5.432 30.912 4.872 31.296C4.328 31.664 4.056 32.152 4.056 32.76C4.056 33.448 4.336 33.968 4.896 34.32C5.472 34.672 6.368 34.96 7.584 35.184C8.96 35.424 10.056 35.736 10.872 36.12C11.704 36.488 12.328 37 12.744 37.656C13.16 38.296 13.368 39.152 13.368 40.224C13.368 41.232 13.08 42.12 12.504 42.888C11.944 43.64 11.192 44.224 10.248 44.64C9.304 45.04 8.288 45.24 7.2 45.24ZM30.6643 32.16C31.0483 32.16 31.3683 32.304 31.6243 32.592C31.8963 32.864 32.0323 33.216 32.0323 33.648C32.0323 33.792 32.0003 33.976 31.9363 34.2L28.2643 44.088C28.1683 44.376 27.9923 44.608 27.7363 44.784C27.4963 44.944 27.2323 45.024 26.9443 45.024L26.7523 45C26.2083 44.968 25.8003 44.664 25.5283 44.088L23.4883 38.184L21.5443 44.088C21.2723 44.664 20.8643 44.968 20.3203 45L20.1283 45.024C19.8403 45.024 19.5683 44.944 19.3123 44.784C19.0723 44.608 18.9043 44.376 18.8083 44.088L15.1363 34.2C15.0723 34.024 15.0403 33.84 15.0403 33.648C15.0403 33.248 15.1683 32.904 15.4243 32.616C15.6963 32.312 16.0483 32.16 16.4803 32.16C16.8003 32.16 17.0723 32.24 17.2963 32.4C17.5363 32.544 17.7043 32.768 17.8003 33.072L20.3923 40.104L22.2883 34.968C22.5443 34.376 22.9843 34.08 23.6083 34.08C23.9443 34.08 24.2003 34.152 24.3763 34.296C24.5683 34.44 24.7283 34.664 24.8563 34.968L26.7043 39.984L29.2723 33.072C29.3683 32.768 29.5363 32.544 29.7763 32.4C30.0163 32.24 30.3123 32.16 30.6643 32.16ZM45.8222 38.28C45.8062 38.664 45.6542 38.976 45.3662 39.216C45.0782 39.456 44.7422 39.576 44.3582 39.576H36.4382C36.6302 40.52 37.0702 41.264 37.7582 41.808C38.4462 42.336 39.2222 42.6 40.0862 42.6C40.7422 42.6 41.2542 42.544 41.6222 42.432C41.9902 42.304 42.2782 42.176 42.4862 42.048C42.7102 41.904 42.8622 41.808 42.9422 41.76C43.2302 41.616 43.5022 41.544 43.7582 41.544C44.0942 41.544 44.3822 41.664 44.6222 41.904C44.8622 42.144 44.9822 42.424 44.9822 42.744C44.9822 43.176 44.7582 43.568 44.3102 43.92C43.8622 44.288 43.2622 44.6 42.5102 44.856C41.7582 45.112 40.9982 45.24 40.2302 45.24C38.8862 45.24 37.7102 44.96 36.7022 44.4C35.7102 43.84 34.9422 43.072 34.3982 42.096C33.8542 41.104 33.5822 39.992 33.5822 38.76C33.5822 37.384 33.8702 36.176 34.4462 35.136C35.0222 34.096 35.7822 33.304 36.7262 32.76C37.6702 32.2 38.6782 31.92 39.7502 31.92C40.8062 31.92 41.7982 32.208 42.7262 32.784C43.6702 33.36 44.4222 34.136 44.9822 35.112C45.5422 36.088 45.8222 37.144 45.8222 38.28ZM39.7502 34.56C37.8942 34.56 36.7982 35.432 36.4622 37.176H42.7502V37.008C42.6862 36.336 42.3582 35.76 41.7662 35.28C41.1742 34.8 40.5022 34.56 39.7502 34.56ZM59.7441 38.28C59.7281 38.664 59.5761 38.976 59.2881 39.216C59.0001 39.456 58.6641 39.576 58.2801 39.576H50.3601C50.5521 40.52 50.9921 41.264 51.6801 41.808C52.3681 42.336 53.1441 42.6 54.0081 42.6C54.6641 42.6 55.1761 42.544 55.5441 42.432C55.9121 42.304 56.2001 42.176 56.4081 42.048C56.6321 41.904 56.7841 41.808 56.8641 41.76C57.1521 41.616 57.4241 41.544 57.6801 41.544C58.0161 41.544 58.3041 41.664 58.5441 41.904C58.7841 42.144 58.9041 42.424 58.9041 42.744C58.9041 43.176 58.6801 43.568 58.2321 43.92C57.7841 44.288 57.1841 44.6 56.4321 44.856C55.6801 45.112 54.9201 45.24 54.1521 45.24C52.8081 45.24 51.6321 44.96 50.6241 44.4C49.6321 43.84 48.8641 43.072 48.3201 42.096C47.7761 41.104 47.5041 39.992 47.5041 38.76C47.5041 37.384 47.7921 36.176 48.3681 35.136C48.9441 34.096 49.7041 33.304 50.6481 32.76C51.5921 32.2 52.6001 31.92 53.6721 31.92C54.7281 31.92 55.7201 32.208 56.6481 32.784C57.5921 33.36 58.3441 34.136 58.9041 35.112C59.4641 36.088 59.7441 37.144 59.7441 38.28ZM53.6721 34.56C51.8161 34.56 50.7201 35.432 50.3841 37.176H56.6721V37.008C56.6081 36.336 56.2801 35.76 55.6881 35.28C55.0961 34.8 54.4241 34.56 53.6721 34.56ZM68.7939 31.92C69.8979 31.92 70.8979 32.208 71.7939 32.784C72.6899 33.344 73.3939 34.128 73.9059 35.136C74.4339 36.144 74.6979 37.288 74.6979 38.568C74.6979 39.848 74.4419 41 73.9299 42.024C73.4179 43.032 72.7139 43.824 71.8179 44.4C70.9379 44.96 69.9619 45.24 68.8899 45.24C68.1219 45.24 67.3939 45.088 66.7059 44.784C66.0339 44.464 65.4739 44.08 65.0259 43.632V48.336C65.0259 48.752 64.8899 49.096 64.6179 49.368C64.3459 49.656 64.0019 49.8 63.5859 49.8C63.1699 49.8 62.8259 49.664 62.5539 49.392C62.2819 49.12 62.1459 48.768 62.1459 48.336V33.624C62.1459 33.208 62.2819 32.864 62.5539 32.592C62.8259 32.304 63.1699 32.16 63.5859 32.16C64.0019 32.16 64.3459 32.304 64.6179 32.592C64.8899 32.864 65.0259 33.208 65.0259 33.624V33.72C65.4099 33.24 65.9459 32.824 66.6339 32.472C67.3219 32.104 68.0419 31.92 68.7939 31.92ZM68.4339 42.6C69.4579 42.6 70.2979 42.216 70.9539 41.448C71.6099 40.68 71.9379 39.72 71.9379 38.568C71.9379 37.416 71.6099 36.464 70.9539 35.712C70.3139 34.944 69.4739 34.56 68.4339 34.56C67.3939 34.56 66.5459 34.944 65.8899 35.712C65.2339 36.464 64.9059 37.416 64.9059 38.568C64.9059 39.72 65.2339 40.68 65.8899 41.448C66.5459 42.216 67.3939 42.6 68.4339 42.6ZM79.8111 43.536C79.8111 43.952 79.6751 44.304 79.4031 44.592C79.1311 44.864 78.7871 45 78.3711 45C77.9551 45 77.6111 44.864 77.3391 44.592C77.0671 44.304 76.9311 43.952 76.9311 43.536V33.624C76.9311 33.208 77.0671 32.864 77.3391 32.592C77.6111 32.304 77.9551 32.16 78.3711 32.16C78.7871 32.16 79.1311 32.304 79.4031 32.592C79.6751 32.864 79.8111 33.208 79.8111 33.624V43.536ZM78.3471 30.6C77.8031 30.6 77.4191 30.512 77.1951 30.336C76.9711 30.16 76.8591 29.848 76.8591 29.4V28.944C76.8591 28.496 76.9791 28.184 77.2191 28.008C77.4591 27.832 77.8431 27.744 78.3711 27.744C78.9311 27.744 79.3231 27.832 79.5471 28.008C79.7711 28.184 79.8831 28.496 79.8831 28.944V29.4C79.8831 29.864 79.7631 30.184 79.5231 30.36C79.2991 30.52 78.9071 30.6 78.3471 30.6Z" fill="#5C5C6A"/>
<circle cx="78.5" cy="29.5" r="2.5" fill="rgb(255, 203, 102)" />
<circle cx="81.5" cy="30.5" r="1.5" fill="#5C5C6A"/>
<path d="M86.046 0.0926619C85.6091 -0.123608 85.0838 0.0514705 84.8658 0.484888L76.8432 16.5443L75.2718 15.7572C73.9706 15.1057 72.3845 15.6362 71.733 16.9339L71.3396 17.7194L80.7707 22.443L81.164 21.6572C81.8137 20.3597 81.2945 18.7755 79.9873 18.1192L78.4156 17.332L86.4382 1.2728C86.6554 0.838502 86.4794 0.310631 86.046 0.0926619Z" fill="#744C00"/>
<path d="M63.3654 22.7387C62.9808 22.7867 62.6735 23.0812 62.6083 23.4623C62.5431 23.8442 62.7345 24.2236 63.0804 24.3969L67.2801 26.4998C68.038 26.8792 68.8757 27.0303 69.6928 26.9435C69.5967 27.3332 69.7795 27.7512 70.1529 27.9392L74.0823 29.9073C74.4125 30.0702 74.7953 30.0127 75.0599 29.7785C75.1974 29.656 78.1909 26.9628 79.9408 23.9943L70.4717 19.2517C68.3502 22.0706 63.4192 22.7316 63.3654 22.7387Z" fill="#E99A00"/>
</svg>
